G04 Layer: TopLayer*
G04 EasyEDA v6.3.53, 2020-06-12T19:14:44+01:00*
G04 b7557649432a4699b844ba23fabf0e7a,831979d3ac2e4a1db92824a7b243be6d,10*
G04 Gerber Generator version 0.2*
G04 Scale: 100 percent, Rotated: No, Reflected: No *
G04 Dimensions in millimeters *
G04 leading zeros omitted , absolute positions ,3 integer and 3 decimal *
%FSLAX33Y33*%
%MOMM*%
G90*
G71D02*

%ADD10C,0.254000*%
%ADD11C,0.203200*%
%ADD12C,2.286000*%
%ADD13C,2.571496*%
%ADD14C,1.799996*%
%ADD15C,1.879600*%

%LPD*%
G54D10*
G01X55999Y48999D02*
G01X48000Y48999D01*
G01X45999Y51000D01*
G01X45999Y55001D01*
G01X51000Y59999D01*
G01X51000Y62080D01*
G01X54000Y65079D01*
G01X62539Y65079D01*
G01X56189Y22539D02*
G01X56189Y25189D01*
G01X77998Y46997D01*
G01X77998Y54000D01*
G01X75999Y55999D01*
G01X64350Y55999D01*
G01X60728Y52379D01*
G01X42539Y65079D02*
G01X42461Y65001D01*
G01X35001Y65001D01*
G01X31998Y61998D01*
G01X31998Y51999D01*
G01X35000Y48999D01*
G01X35999Y48999D01*
G01X56189Y42539D02*
G01X56189Y45299D01*
G01X63269Y52379D01*
G01X36189Y22539D02*
G01X56189Y22539D01*
G01X16189Y22539D02*
G01X36189Y22539D01*
G01X36189Y42539D02*
G01X56189Y42539D01*
G01X16000Y42328D02*
G01X35978Y42328D01*
G01X36189Y42539D01*
G54D11*
G01X35454Y4008D02*
G01X35454Y3281D01*
G01X35408Y3144D01*
G01X35363Y3098D01*
G01X35271Y3055D01*
G01X35182Y3055D01*
G01X35091Y3098D01*
G01X35045Y3144D01*
G01X34999Y3281D01*
G01X34999Y3373D01*
G01X35754Y4008D02*
G01X35754Y3055D01*
G01X35754Y3055D02*
G01X36300Y3055D01*
G01X37280Y3782D02*
G01X37235Y3873D01*
G01X37146Y3962D01*
G01X37054Y4008D01*
G01X36871Y4008D01*
G01X36783Y3962D01*
G01X36691Y3873D01*
G01X36645Y3782D01*
G01X36600Y3644D01*
G01X36600Y3418D01*
G01X36645Y3281D01*
G01X36691Y3190D01*
G01X36783Y3098D01*
G01X36871Y3055D01*
G01X37054Y3055D01*
G01X37146Y3098D01*
G01X37235Y3190D01*
G01X37280Y3281D01*
G01X38035Y4008D02*
G01X38035Y3281D01*
G01X37992Y3144D01*
G01X37946Y3098D01*
G01X37854Y3055D01*
G01X37763Y3055D01*
G01X37672Y3098D01*
G01X37626Y3144D01*
G01X37580Y3281D01*
G01X37580Y3373D01*
G01X38337Y4008D02*
G01X38337Y3055D01*
G01X38337Y3055D02*
G01X38881Y3055D01*
G01X39864Y3782D02*
G01X39818Y3873D01*
G01X39726Y3962D01*
G01X39635Y4008D01*
G01X39455Y4008D01*
G01X39363Y3962D01*
G01X39272Y3873D01*
G01X39226Y3782D01*
G01X39180Y3644D01*
G01X39180Y3418D01*
G01X39226Y3281D01*
G01X39272Y3190D01*
G01X39363Y3098D01*
G01X39455Y3055D01*
G01X39635Y3055D01*
G01X39726Y3098D01*
G01X39818Y3190D01*
G01X39864Y3281D01*
G01X40618Y4008D02*
G01X40618Y3281D01*
G01X40572Y3144D01*
G01X40526Y3098D01*
G01X40435Y3055D01*
G01X40346Y3055D01*
G01X40255Y3098D01*
G01X40209Y3144D01*
G01X40163Y3281D01*
G01X40163Y3373D01*
G01X40918Y4008D02*
G01X40918Y3055D01*
G01X40918Y3055D02*
G01X41464Y3055D01*
G01X42444Y3782D02*
G01X42398Y3873D01*
G01X42310Y3962D01*
G01X42218Y4008D01*
G01X42035Y4008D01*
G01X41944Y3962D01*
G01X41855Y3873D01*
G01X41809Y3782D01*
G01X41763Y3644D01*
G01X41763Y3418D01*
G01X41809Y3281D01*
G01X41855Y3190D01*
G01X41944Y3098D01*
G01X42035Y3055D01*
G01X42218Y3055D01*
G01X42310Y3098D01*
G01X42398Y3190D01*
G01X42444Y3281D01*
G01X43199Y4008D02*
G01X43199Y3281D01*
G01X43153Y3144D01*
G01X43110Y3098D01*
G01X43018Y3055D01*
G01X42927Y3055D01*
G01X42835Y3098D01*
G01X42790Y3144D01*
G01X42744Y3281D01*
G01X42744Y3373D01*
G01X43498Y4008D02*
G01X43498Y3055D01*
G01X43498Y3055D02*
G01X44044Y3055D01*
G01X45027Y3782D02*
G01X44982Y3873D01*
G01X44890Y3962D01*
G01X44799Y4008D01*
G01X44618Y4008D01*
G01X44527Y3962D01*
G01X44436Y3873D01*
G01X44390Y3782D01*
G01X44344Y3644D01*
G01X44344Y3418D01*
G01X44390Y3281D01*
G01X44436Y3190D01*
G01X44527Y3098D01*
G01X44618Y3055D01*
G01X44799Y3055D01*
G01X44890Y3098D01*
G01X44982Y3190D01*
G01X45027Y3281D01*
G54D12*
G01X16189Y62539D03*
G01X22539Y65079D03*
G54D13*
G01X14919Y59999D03*
G01X25079Y59999D03*
G54D12*
G01X36189Y62539D03*
G01X42539Y65079D03*
G54D13*
G01X34919Y59999D03*
G01X45079Y59999D03*
G54D12*
G01X56189Y62539D03*
G01X62539Y65079D03*
G54D13*
G01X54919Y59999D03*
G01X65079Y59999D03*
G54D12*
G01X36189Y42539D03*
G01X42539Y45079D03*
G54D13*
G01X34919Y39999D03*
G01X45079Y39999D03*
G54D12*
G01X56189Y42539D03*
G01X62539Y45079D03*
G54D13*
G01X54919Y39999D03*
G01X65079Y39999D03*
G54D12*
G01X16189Y22539D03*
G01X22539Y25079D03*
G54D13*
G01X14919Y19999D03*
G01X25079Y19999D03*
G54D12*
G01X36189Y22539D03*
G01X42539Y25079D03*
G54D13*
G01X34919Y19999D03*
G01X45079Y19999D03*
G54D12*
G01X56189Y22539D03*
G01X62539Y25079D03*
G54D13*
G01X54919Y19999D03*
G01X65079Y19999D03*
G54D12*
G01X16000Y42328D03*
G54D13*
G01X14730Y39788D03*
G54D12*
G01X22350Y44868D03*
G54D13*
G01X24890Y39788D03*
G54D14*
G01X36000Y48999D03*
G01X43999Y48999D03*
G01X56000Y48999D03*
G01X63999Y48999D03*
G01X16000Y28999D03*
G01X24000Y28999D03*
G01X36000Y28999D03*
G01X43999Y28999D03*
G01X56000Y28999D03*
G01X63999Y28999D03*
G01X16000Y8999D03*
G01X24000Y8999D03*
G01X36000Y8999D03*
G01X43999Y8999D03*
G01X56000Y8999D03*
G01X63999Y8999D03*
G54D15*
G01X48029Y52379D03*
G01X50569Y52379D03*
G01X53109Y52379D03*
G01X55649Y52379D03*
G01X58189Y52379D03*
G01X60729Y52379D03*
G01X63269Y52379D03*
G01X65809Y52379D03*
G01X68349Y52379D03*
G01X70889Y52379D03*
G01X73429Y52379D03*
G01X75969Y52379D03*
G01X75969Y67619D03*
G01X73429Y67619D03*
G01X70889Y67619D03*
G01X68349Y67619D03*
G01X65809Y67619D03*
G01X63269Y67619D03*
G01X60729Y67619D03*
G01X58189Y67619D03*
G01X55649Y67619D03*
G01X53109Y67619D03*
G01X50569Y67619D03*
G01X48029Y67619D03*
G54D14*
G01X16000Y48999D03*
G01X24000Y48999D03*
M00*
M02*
