G04 Layer: BottomSolderMaskLayer*
G04 EasyEDA v6.3.53, 2020-07-05T02:03:50+01:00*
G04 82ae3a4b42a8425995a6aefca007ea94,831979d3ac2e4a1db92824a7b243be6d,10*
G04 Gerber Generator version 0.2*
G04 Scale: 100 percent, Rotated: No, Reflected: No *
G04 Dimensions in millimeters *
G04 leading zeros omitted , absolute positions ,3 integer and 3 decimal *
%FSLAX33Y33*%
%MOMM*%
G90*
G71D02*

%ADD21C,2.489200*%
%ADD22C,2.774696*%
%ADD23C,2.003196*%
%ADD25C,2.082800*%

%LPD*%
G54D21*
G01X16189Y62539D03*
G01X22539Y65079D03*
G54D22*
G01X14919Y59999D03*
G01X25079Y59999D03*
G54D21*
G01X36189Y62539D03*
G01X42539Y65079D03*
G54D22*
G01X34919Y59999D03*
G01X45079Y59999D03*
G54D21*
G01X56189Y62539D03*
G01X62539Y65079D03*
G54D22*
G01X54919Y59999D03*
G01X65079Y59999D03*
G54D21*
G01X36189Y42539D03*
G01X42539Y45079D03*
G54D22*
G01X34919Y39999D03*
G01X45079Y39999D03*
G54D21*
G01X56189Y42539D03*
G01X62539Y45079D03*
G54D22*
G01X54919Y39999D03*
G01X65079Y39999D03*
G54D21*
G01X16189Y22539D03*
G01X22539Y25079D03*
G54D22*
G01X14919Y19999D03*
G01X25079Y19999D03*
G54D21*
G01X36189Y22539D03*
G01X42539Y25079D03*
G54D22*
G01X34919Y19999D03*
G01X45079Y19999D03*
G54D21*
G01X56189Y22539D03*
G01X62539Y25079D03*
G54D22*
G01X54919Y19999D03*
G01X65079Y19999D03*
G54D21*
G01X16000Y42328D03*
G54D22*
G01X14730Y39788D03*
G54D21*
G01X22350Y44868D03*
G54D22*
G01X24890Y39788D03*
G54D23*
G01X35999Y48999D03*
G01X43999Y48999D03*
G01X56000Y48999D03*
G01X64000Y48999D03*
G01X15999Y28999D03*
G01X23999Y28999D03*
G01X35999Y28999D03*
G01X43999Y28999D03*
G01X56000Y28999D03*
G01X64000Y28999D03*
G01X15999Y8999D03*
G01X23999Y8999D03*
G01X35999Y8999D03*
G01X43999Y8999D03*
G01X56000Y8999D03*
G01X64000Y8999D03*
G01X15999Y48999D03*
G01X23999Y48999D03*
G36*
G01X37899Y52499D02*
G01X37899Y53700D01*
G01X39301Y53700D01*
G01X39301Y52499D01*
G01X37899Y52499D01*
G37*
G36*
G01X40698Y52499D02*
G01X40698Y53700D01*
G01X42100Y53700D01*
G01X42100Y52499D01*
G01X40698Y52499D01*
G37*
G36*
G01X40698Y54297D02*
G01X40698Y55501D01*
G01X42100Y55501D01*
G01X42100Y54297D01*
G01X40698Y54297D01*
G37*
G36*
G01X37899Y54297D02*
G01X37899Y55501D01*
G01X39301Y55501D01*
G01X39301Y54297D01*
G01X37899Y54297D01*
G37*
G36*
G01X17899Y32499D02*
G01X17899Y33700D01*
G01X19301Y33700D01*
G01X19301Y32499D01*
G01X17899Y32499D01*
G37*
G36*
G01X20698Y32499D02*
G01X20698Y33700D01*
G01X22100Y33700D01*
G01X22100Y32499D01*
G01X20698Y32499D01*
G37*
G36*
G01X20698Y34297D02*
G01X20698Y35501D01*
G01X22100Y35501D01*
G01X22100Y34297D01*
G01X20698Y34297D01*
G37*
G36*
G01X17899Y34297D02*
G01X17899Y35501D01*
G01X19301Y35501D01*
G01X19301Y34297D01*
G01X17899Y34297D01*
G37*
G36*
G01X37899Y12499D02*
G01X37899Y13700D01*
G01X39301Y13700D01*
G01X39301Y12499D01*
G01X37899Y12499D01*
G37*
G36*
G01X40698Y12499D02*
G01X40698Y13700D01*
G01X42100Y13700D01*
G01X42100Y12499D01*
G01X40698Y12499D01*
G37*
G36*
G01X40698Y14297D02*
G01X40698Y15501D01*
G01X42100Y15501D01*
G01X42100Y14297D01*
G01X40698Y14297D01*
G37*
G36*
G01X37899Y14297D02*
G01X37899Y15501D01*
G01X39301Y15501D01*
G01X39301Y14297D01*
G01X37899Y14297D01*
G37*
G36*
G01X57899Y32499D02*
G01X57899Y33700D01*
G01X59301Y33700D01*
G01X59301Y32499D01*
G01X57899Y32499D01*
G37*
G36*
G01X60698Y32499D02*
G01X60698Y33700D01*
G01X62100Y33700D01*
G01X62100Y32499D01*
G01X60698Y32499D01*
G37*
G36*
G01X60698Y34297D02*
G01X60698Y35501D01*
G01X62100Y35501D01*
G01X62100Y34297D01*
G01X60698Y34297D01*
G37*
G36*
G01X57899Y34297D02*
G01X57899Y35501D01*
G01X59301Y35501D01*
G01X59301Y34297D01*
G01X57899Y34297D01*
G37*
G54D25*
G01X48029Y52379D03*
G01X50569Y52379D03*
G01X53109Y52379D03*
G01X55649Y52379D03*
G01X58189Y52379D03*
G01X60729Y52379D03*
G01X63269Y52379D03*
G01X65809Y52379D03*
G01X68349Y52379D03*
G01X70889Y52379D03*
G01X73429Y52379D03*
G01X75969Y52379D03*
G01X75969Y67619D03*
G01X73429Y67619D03*
G01X70889Y67619D03*
G01X68349Y67619D03*
G01X65809Y67619D03*
G01X63269Y67619D03*
G01X60729Y67619D03*
G01X58189Y67619D03*
G01X55649Y67619D03*
G01X53109Y67619D03*
G01X50569Y67619D03*
G01X48029Y67619D03*
M00*
M02*
