;Layer: Drill PTH
;EasyEDA v6.3.53, 2020-07-05T02:03:50+01:00
;82ae3a4b42a8425995a6aefca007ea94,831979d3ac2e4a1db92824a7b243be6d,10
;Gerber Generator version 0.2
M48
METRIC,LZ,000.000
;Holesize 1 = 0.305 METRIC
T01C0.305
;Holesize 2 = 1.000 METRIC
T02C1.000
;Holesize 3 = 1.016 METRIC
T03C1.016
;Holesize 4 = 1.524 METRIC
T04C1.524
;Holesize 5 = 1.715 METRIC
T05C1.715
%
G05
G90
T01
X+052999Y+063999
X+028999Y+043999
X+027000Y+038000
X+028999Y+024000
X+027000Y+018999
X+052999Y+020899
X+052999Y+024522
X+068000Y+031000
X+059000Y+031000
X+027000Y+064408
X+052999Y+040999
X+051999Y+044999
X+042999Y+052999
X+030999Y+053099
X+035000Y+054899
X+035000Y+050999
X+030999Y+047999
X+015001Y+035001
X+014999Y+032999
X+025899Y+029999
X+020000Y+012999
X+035001Y+015001
X+037000Y+013099
X+069999Y+041000
X+055999Y+035001
X+055999Y+032999
T02
X+036000Y+048999
X+043999Y+048999
X+056000Y+048999
X+063999Y+048999
X+016000Y+028999
X+023999Y+028999
X+036000Y+028999
X+043999Y+028999
X+056000Y+028999
X+063999Y+028999
X+016000Y+008999
X+023999Y+008999
X+036000Y+008999
X+043999Y+008999
X+056000Y+008999
X+063999Y+008999
X+016000Y+048999
X+023999Y+048999
T03
X+048030Y+052379
X+050570Y+052379
X+053110Y+052379
X+055650Y+052379
X+058190Y+052379
X+060730Y+052379
X+063270Y+052379
X+065810Y+052379
X+068350Y+052379
X+070890Y+052379
X+073430Y+052379
X+075970Y+052379
X+075970Y+067619
X+073430Y+067619
X+070890Y+067619
X+068350Y+067619
X+065810Y+067619
X+063270Y+067619
X+060730Y+067619
X+058190Y+067619
X+055650Y+067619
X+053110Y+067619
X+050570Y+067619
X+048030Y+067619
T04
X+016187Y+062539G85X+016192Y+062539
X+022537Y+065079G85X+022542Y+065079
X+036187Y+062539G85X+036192Y+062539
X+042537Y+065079G85X+042542Y+065079
X+056187Y+062539G85X+056192Y+062539
X+062537Y+065079G85X+062542Y+065079
X+036187Y+042539G85X+036192Y+042539
X+042537Y+045079G85X+042542Y+045079
X+056187Y+042539G85X+056192Y+042539
X+062537Y+045079G85X+062542Y+045079
X+016187Y+022539G85X+016192Y+022539
X+022537Y+025079G85X+022542Y+025079
X+036187Y+022539G85X+036192Y+022539
X+042537Y+025079G85X+042542Y+025079
X+056187Y+022539G85X+056192Y+022539
X+062537Y+025079G85X+062542Y+025079
X+015997Y+042328G85X+016002Y+042328
X+022347Y+044868G85X+022352Y+044868
T05
X+014917Y+059999G85X+014922Y+059999
X+025077Y+059999G85X+025082Y+059999
X+034917Y+059999G85X+034922Y+059999
X+045077Y+059999G85X+045082Y+059999
X+054917Y+059999G85X+054922Y+059999
X+065077Y+059999G85X+065082Y+059999
X+034917Y+039999G85X+034922Y+039999
X+045077Y+039999G85X+045082Y+039999
X+054917Y+039999G85X+054922Y+039999
X+065077Y+039999G85X+065082Y+039999
X+014917Y+019999G85X+014922Y+019999
X+025077Y+019999G85X+025082Y+019999
X+034917Y+019999G85X+034922Y+019999
X+045077Y+019999G85X+045082Y+019999
X+054917Y+019999G85X+054922Y+019999
X+065077Y+019999G85X+065082Y+019999
X+014727Y+039788G85X+014732Y+039788
X+024887Y+039788G85X+024892Y+039788
M30
