G04 Layer: TopSilkLayer*
G04 EasyEDA v6.3.53, 2020-07-05T02:03:50+01:00*
G04 82ae3a4b42a8425995a6aefca007ea94,831979d3ac2e4a1db92824a7b243be6d,10*
G04 Gerber Generator version 0.2*
G04 Scale: 100 percent, Rotated: No, Reflected: No *
G04 Dimensions in millimeters *
G04 leading zeros omitted , absolute positions ,3 integer and 3 decimal *
%FSLAX33Y33*%
%MOMM*%
G90*
G71D02*

%ADD10C,0.254000*%
%ADD11C,0.203200*%
%ADD18C,0.127000*%
%ADD19C,0.152400*%

%LPD*%
G54D18*
G01X52380Y67619D02*
G01X67620Y67619D01*
G01X67620Y52379D01*
G01X52380Y52379D01*
G01X52380Y67619D01*
G01X12189Y47408D02*
G01X27810Y47408D01*
G01X27810Y32168D01*
G01X12189Y32168D01*
G01X12189Y47408D01*
G01X52380Y27619D02*
G01X67620Y27619D01*
G01X67620Y12379D01*
G01X52380Y12379D01*
G01X52380Y27619D01*
G01X32379Y27619D02*
G01X47619Y27619D01*
G01X47619Y12379D01*
G01X32379Y12379D01*
G01X32379Y27619D01*
G01X12380Y27619D02*
G01X27620Y27619D01*
G01X27620Y12379D01*
G01X12380Y12379D01*
G01X12380Y27619D01*
G01X52380Y47619D02*
G01X67620Y47619D01*
G01X67620Y32379D01*
G01X52380Y32379D01*
G01X52380Y47619D01*
G01X32379Y47619D02*
G01X47619Y47619D01*
G01X47619Y32379D01*
G01X32379Y32379D01*
G01X32379Y47619D01*
G01X32379Y67619D02*
G01X47619Y67619D01*
G01X47619Y52379D01*
G01X32379Y52379D01*
G01X32379Y67619D01*
G01X12380Y67619D02*
G01X27620Y67619D01*
G01X27620Y52379D01*
G01X12380Y52379D01*
G01X12380Y67619D01*
G54D10*
G01X42199Y47899D02*
G01X37799Y47899D01*
G01X42199Y50100D02*
G01X37799Y50100D01*
G01X42199Y47899D02*
G01X42199Y50100D01*
G01X37799Y47899D02*
G01X37799Y50100D01*
G01X41260Y47899D02*
G01X41260Y50100D01*
G01X62199Y47899D02*
G01X57799Y47899D01*
G01X62199Y50100D02*
G01X57799Y50100D01*
G01X62199Y47899D02*
G01X62199Y50100D01*
G01X57799Y47899D02*
G01X57799Y50100D01*
G01X61260Y47899D02*
G01X61260Y50100D01*
G01X22199Y27899D02*
G01X17799Y27899D01*
G01X22199Y30099D02*
G01X17799Y30099D01*
G01X22199Y27899D02*
G01X22199Y30099D01*
G01X17799Y27899D02*
G01X17799Y30099D01*
G01X21260Y27899D02*
G01X21260Y30099D01*
G01X42199Y27899D02*
G01X37799Y27899D01*
G01X42199Y30099D02*
G01X37799Y30099D01*
G01X42199Y27899D02*
G01X42199Y30099D01*
G01X37799Y27899D02*
G01X37799Y30099D01*
G01X41260Y27899D02*
G01X41260Y30099D01*
G01X62199Y27899D02*
G01X57799Y27899D01*
G01X62199Y30099D02*
G01X57799Y30099D01*
G01X62199Y27899D02*
G01X62199Y30099D01*
G01X57799Y27899D02*
G01X57799Y30099D01*
G01X61260Y27899D02*
G01X61260Y30099D01*
G01X22199Y7899D02*
G01X17799Y7899D01*
G01X22199Y10100D02*
G01X17799Y10100D01*
G01X22199Y7899D02*
G01X22199Y10100D01*
G01X17799Y7899D02*
G01X17799Y10100D01*
G01X21260Y7899D02*
G01X21260Y10100D01*
G01X42199Y7899D02*
G01X37799Y7899D01*
G01X42199Y10100D02*
G01X37799Y10100D01*
G01X42199Y7899D02*
G01X42199Y10100D01*
G01X37799Y7899D02*
G01X37799Y10100D01*
G01X41260Y7899D02*
G01X41260Y10100D01*
G01X62199Y7899D02*
G01X57799Y7899D01*
G01X62199Y10100D02*
G01X57799Y10100D01*
G01X62199Y7899D02*
G01X62199Y10100D01*
G01X57799Y7899D02*
G01X57799Y10100D01*
G01X61260Y7899D02*
G01X61260Y10100D01*
G01X22199Y47899D02*
G01X17799Y47899D01*
G01X22199Y50100D02*
G01X17799Y50100D01*
G01X22199Y47899D02*
G01X22199Y50100D01*
G01X17799Y47899D02*
G01X17799Y50100D01*
G01X21260Y47899D02*
G01X21260Y50100D01*
G54D19*
G01X51750Y40749D02*
G01X48250Y40749D01*
G01X51750Y37249D02*
G01X48250Y37249D01*
G01X51750Y37249D02*
G01X51750Y37419D01*
G01X51750Y38780D02*
G01X51750Y39219D01*
G01X51750Y40580D02*
G01X51750Y40749D01*
G01X48250Y37249D02*
G01X48250Y37419D01*
G01X48250Y38780D02*
G01X48250Y39219D01*
G01X48250Y40580D02*
G01X48250Y40749D01*
G01X52699Y38099D02*
G01X52275Y38099D01*
G01X52499Y38299D02*
G01X52499Y37874D01*
G01X47800Y39899D02*
G01X47375Y39899D01*
G01X31750Y40749D02*
G01X28250Y40749D01*
G01X31750Y37249D02*
G01X28250Y37249D01*
G01X31750Y37249D02*
G01X31750Y37419D01*
G01X31750Y38780D02*
G01X31750Y39219D01*
G01X31750Y40580D02*
G01X31750Y40749D01*
G01X28250Y37249D02*
G01X28250Y37419D01*
G01X28250Y38780D02*
G01X28250Y39219D01*
G01X28250Y40580D02*
G01X28250Y40749D01*
G01X32699Y38099D02*
G01X32274Y38099D01*
G01X32499Y38299D02*
G01X32499Y37874D01*
G01X27799Y39899D02*
G01X27375Y39899D01*
G01X31750Y21749D02*
G01X28250Y21749D01*
G01X31750Y18250D02*
G01X28250Y18250D01*
G01X31750Y18250D02*
G01X31750Y18419D01*
G01X31750Y19780D02*
G01X31750Y20219D01*
G01X31750Y21580D02*
G01X31750Y21749D01*
G01X28250Y18250D02*
G01X28250Y18419D01*
G01X28250Y19780D02*
G01X28250Y20219D01*
G01X28250Y21580D02*
G01X28250Y21749D01*
G01X32699Y19099D02*
G01X32274Y19099D01*
G01X32499Y19299D02*
G01X32499Y18874D01*
G01X27799Y20899D02*
G01X27375Y20899D01*
G01X51750Y61749D02*
G01X48250Y61749D01*
G01X51750Y58249D02*
G01X48250Y58249D01*
G01X51750Y58249D02*
G01X51750Y58419D01*
G01X51750Y59780D02*
G01X51750Y60219D01*
G01X51750Y61580D02*
G01X51750Y61749D01*
G01X48250Y58249D02*
G01X48250Y58419D01*
G01X48250Y59780D02*
G01X48250Y60219D01*
G01X48250Y61580D02*
G01X48250Y61749D01*
G01X52699Y59099D02*
G01X52275Y59099D01*
G01X52499Y59299D02*
G01X52499Y58874D01*
G01X47800Y60899D02*
G01X47375Y60899D01*
G01X51750Y21749D02*
G01X48250Y21749D01*
G01X51750Y18250D02*
G01X48250Y18250D01*
G01X51750Y18250D02*
G01X51750Y18419D01*
G01X51750Y19780D02*
G01X51750Y20219D01*
G01X51750Y21580D02*
G01X51750Y21749D01*
G01X48250Y18250D02*
G01X48250Y18419D01*
G01X48250Y19780D02*
G01X48250Y20219D01*
G01X48250Y21580D02*
G01X48250Y21749D01*
G01X52699Y19099D02*
G01X52275Y19099D01*
G01X52499Y19299D02*
G01X52499Y18874D01*
G01X47800Y20899D02*
G01X47375Y20899D01*
G01X31750Y61749D02*
G01X28250Y61749D01*
G01X31750Y58249D02*
G01X28250Y58249D01*
G01X31750Y58249D02*
G01X31750Y58419D01*
G01X31750Y59780D02*
G01X31750Y60219D01*
G01X31750Y61580D02*
G01X31750Y61749D01*
G01X28250Y58249D02*
G01X28250Y58419D01*
G01X28250Y59780D02*
G01X28250Y60219D01*
G01X28250Y61580D02*
G01X28250Y61749D01*
G01X32699Y59099D02*
G01X32274Y59099D01*
G01X32499Y59299D02*
G01X32499Y58874D01*
G01X27799Y60899D02*
G01X27375Y60899D01*
G54D10*
G01X52475Y51109D02*
G01X51840Y51744D01*
G01X51205Y51109D01*
G01X49935Y51109D01*
G01X49300Y51744D01*
G01X48665Y51109D01*
G01X47395Y51109D01*
G01X46760Y51744D01*
G01X46760Y53014D01*
G01X47395Y53649D01*
G01X48665Y53649D01*
G01X49300Y53014D01*
G01X49935Y53649D01*
G01X51205Y53649D01*
G01X51840Y53014D01*
G01X52475Y53649D01*
G01X53745Y53649D01*
G01X54380Y53014D01*
G01X55015Y53649D01*
G01X56285Y53649D01*
G01X56920Y53014D01*
G01X57555Y53649D01*
G01X58825Y53649D01*
G01X59460Y53014D01*
G01X60095Y53649D01*
G01X61365Y53649D01*
G01X62000Y53014D01*
G01X62635Y53649D01*
G01X63905Y53649D01*
G01X64540Y53014D01*
G01X65175Y53649D01*
G01X66445Y53649D01*
G01X67080Y53014D01*
G01X67715Y53649D01*
G01X68985Y53649D01*
G01X69620Y53014D01*
G01X70255Y53649D01*
G01X71525Y53649D01*
G01X72160Y53014D01*
G01X72795Y53649D01*
G01X74065Y53649D01*
G01X74700Y53014D01*
G01X75335Y53649D01*
G01X76605Y53649D01*
G01X77240Y53014D01*
G01X77240Y51744D01*
G01X76605Y51109D01*
G01X75335Y51109D01*
G01X74700Y51744D01*
G01X74065Y51109D01*
G01X72795Y51109D01*
G01X72160Y51744D01*
G01X71525Y51109D01*
G01X70255Y51109D01*
G01X69620Y51744D01*
G01X68985Y51109D01*
G01X67715Y51109D01*
G01X67080Y51744D01*
G01X66445Y51109D01*
G01X65175Y51109D01*
G01X64540Y51744D01*
G01X63905Y51109D01*
G01X62635Y51109D01*
G01X62000Y51744D01*
G01X61365Y51109D01*
G01X60095Y51109D01*
G01X59460Y51744D01*
G01X58825Y51109D01*
G01X57555Y51109D01*
G01X56920Y51744D01*
G01X56285Y51109D01*
G01X55015Y51109D01*
G01X54380Y51744D01*
G01X53745Y51109D01*
G01X52475Y51109D01*
G01X71525Y68889D02*
G01X72160Y68254D01*
G01X72795Y68889D01*
G01X74065Y68889D01*
G01X74700Y68254D01*
G01X75335Y68889D01*
G01X76605Y68889D01*
G01X77240Y68254D01*
G01X77240Y66984D01*
G01X76605Y66349D01*
G01X75335Y66349D01*
G01X74700Y66984D01*
G01X74065Y66349D01*
G01X72795Y66349D01*
G01X72160Y66984D01*
G01X71525Y66349D01*
G01X70255Y66349D01*
G01X69620Y66984D01*
G01X68985Y66349D01*
G01X67715Y66349D01*
G01X67080Y66984D01*
G01X66445Y66349D01*
G01X65175Y66349D01*
G01X64540Y66984D01*
G01X63905Y66349D01*
G01X62635Y66349D01*
G01X62000Y66984D01*
G01X61365Y66349D01*
G01X60095Y66349D01*
G01X59460Y66984D01*
G01X58825Y66349D01*
G01X57555Y66349D01*
G01X56920Y66984D01*
G01X56285Y66349D01*
G01X55015Y66349D01*
G01X54380Y66984D01*
G01X53745Y66349D01*
G01X52475Y66349D01*
G01X51840Y66984D01*
G01X51205Y66349D01*
G01X49935Y66349D01*
G01X49300Y66984D01*
G01X48665Y66349D01*
G01X47395Y66349D01*
G01X46760Y66984D01*
G01X46760Y68254D01*
G01X47395Y68889D01*
G01X48665Y68889D01*
G01X49300Y68254D01*
G01X49935Y68889D01*
G01X51205Y68889D01*
G01X51840Y68254D01*
G01X52475Y68889D01*
G01X53745Y68889D01*
G01X54380Y68254D01*
G01X55015Y68889D01*
G01X56285Y68889D01*
G01X56920Y68254D01*
G01X57555Y68889D01*
G01X58825Y68889D01*
G01X59460Y68254D01*
G01X60095Y68889D01*
G01X61365Y68889D01*
G01X62000Y68254D01*
G01X62635Y68889D01*
G01X63905Y68889D01*
G01X64540Y68254D01*
G01X65175Y68889D01*
G01X66445Y68889D01*
G01X67080Y68254D01*
G01X67715Y68889D01*
G01X68985Y68889D01*
G01X69620Y68254D01*
G01X70255Y68889D01*
G01X71525Y68889D01*
G54D11*
G01X23386Y73588D02*
G01X23292Y73774D01*
G01X23109Y73957D01*
G01X22924Y74051D01*
G01X22553Y74051D01*
G01X22370Y73957D01*
G01X22184Y73774D01*
G01X22093Y73588D01*
G01X21999Y73311D01*
G01X21999Y72849D01*
G01X22093Y72572D01*
G01X22184Y72387D01*
G01X22370Y72201D01*
G01X22553Y72110D01*
G01X22924Y72110D01*
G01X23109Y72201D01*
G01X23292Y72387D01*
G01X23386Y72572D01*
G01X23386Y72849D01*
G01X22924Y72849D02*
G01X23386Y72849D01*
G01X24455Y73403D02*
G01X24272Y73311D01*
G01X24087Y73126D01*
G01X23995Y72849D01*
G01X23995Y72664D01*
G01X24087Y72387D01*
G01X24272Y72201D01*
G01X24455Y72110D01*
G01X24735Y72110D01*
G01X24917Y72201D01*
G01X25103Y72387D01*
G01X25194Y72664D01*
G01X25194Y72849D01*
G01X25103Y73126D01*
G01X24917Y73311D01*
G01X24735Y73403D01*
G01X24455Y73403D01*
G01X25804Y73403D02*
G01X26175Y72110D01*
G01X26543Y73403D02*
G01X26175Y72110D01*
G01X26543Y73403D02*
G01X26914Y72110D01*
G01X27282Y73403D02*
G01X26914Y72110D01*
G01X27892Y74051D02*
G01X27892Y72110D01*
G01X29611Y73403D02*
G01X29611Y72110D01*
G01X29611Y73126D02*
G01X29426Y73311D01*
G01X29241Y73403D01*
G01X28964Y73403D01*
G01X28778Y73311D01*
G01X28595Y73126D01*
G01X28501Y72849D01*
G01X28501Y72664D01*
G01X28595Y72387D01*
G01X28778Y72201D01*
G01X28964Y72110D01*
G01X29241Y72110D01*
G01X29426Y72201D01*
G01X29611Y72387D01*
G01X31643Y74051D02*
G01X31643Y72110D01*
G01X31643Y74051D02*
G01X32380Y72110D01*
G01X33119Y74051D02*
G01X32380Y72110D01*
G01X33119Y74051D02*
G01X33119Y72110D01*
G01X34839Y73403D02*
G01X34839Y72110D01*
G01X34839Y73126D02*
G01X34653Y73311D01*
G01X34468Y73403D01*
G01X34191Y73403D01*
G01X34006Y73311D01*
G01X33823Y73126D01*
G01X33729Y72849D01*
G01X33729Y72664D01*
G01X33823Y72387D01*
G01X34006Y72201D01*
G01X34191Y72110D01*
G01X34468Y72110D01*
G01X34653Y72201D01*
G01X34839Y72387D01*
G01X36556Y73126D02*
G01X36370Y73311D01*
G01X36187Y73403D01*
G01X35911Y73403D01*
G01X35725Y73311D01*
G01X35540Y73126D01*
G01X35448Y72849D01*
G01X35448Y72664D01*
G01X35540Y72387D01*
G01X35725Y72201D01*
G01X35911Y72110D01*
G01X36187Y72110D01*
G01X36370Y72201D01*
G01X36556Y72387D01*
G01X37165Y73403D02*
G01X37165Y72110D01*
G01X37165Y72849D02*
G01X37257Y73126D01*
G01X37442Y73311D01*
G01X37628Y73403D01*
G01X37904Y73403D01*
G01X38976Y73403D02*
G01X38791Y73311D01*
G01X38606Y73126D01*
G01X38514Y72849D01*
G01X38514Y72664D01*
G01X38606Y72387D01*
G01X38791Y72201D01*
G01X38976Y72110D01*
G01X39253Y72110D01*
G01X39439Y72201D01*
G01X39622Y72387D01*
G01X39715Y72664D01*
G01X39715Y72849D01*
G01X39622Y73126D01*
G01X39439Y73311D01*
G01X39253Y73403D01*
G01X38976Y73403D01*
G01X41747Y74051D02*
G01X41747Y72110D01*
G01X41747Y74051D02*
G01X42578Y74051D01*
G01X42855Y73957D01*
G01X42946Y73865D01*
G01X43040Y73680D01*
G01X43040Y73497D01*
G01X42946Y73311D01*
G01X42855Y73217D01*
G01X42578Y73126D01*
G01X41747Y73126D02*
G01X42578Y73126D01*
G01X42855Y73035D01*
G01X42946Y72941D01*
G01X43040Y72758D01*
G01X43040Y72481D01*
G01X42946Y72295D01*
G01X42855Y72201D01*
G01X42578Y72110D01*
G01X41747Y72110D01*
G01X44112Y73403D02*
G01X43927Y73311D01*
G01X43741Y73126D01*
G01X43650Y72849D01*
G01X43650Y72664D01*
G01X43741Y72387D01*
G01X43927Y72201D01*
G01X44112Y72110D01*
G01X44389Y72110D01*
G01X44572Y72201D01*
G01X44757Y72387D01*
G01X44851Y72664D01*
G01X44851Y72849D01*
G01X44757Y73126D01*
G01X44572Y73311D01*
G01X44389Y73403D01*
G01X44112Y73403D01*
G01X46568Y73403D02*
G01X46568Y72110D01*
G01X46568Y73126D02*
G01X46383Y73311D01*
G01X46198Y73403D01*
G01X45921Y73403D01*
G01X45738Y73311D01*
G01X45552Y73126D01*
G01X45461Y72849D01*
G01X45461Y72664D01*
G01X45552Y72387D01*
G01X45738Y72201D01*
G01X45921Y72110D01*
G01X46198Y72110D01*
G01X46383Y72201D01*
G01X46568Y72387D01*
G01X47178Y73403D02*
G01X47178Y72110D01*
G01X47178Y72849D02*
G01X47269Y73126D01*
G01X47455Y73311D01*
G01X47640Y73403D01*
G01X47917Y73403D01*
G01X49634Y74051D02*
G01X49634Y72110D01*
G01X49634Y73126D02*
G01X49449Y73311D01*
G01X49266Y73403D01*
G01X48989Y73403D01*
G01X48804Y73311D01*
G01X48618Y73126D01*
G01X48527Y72849D01*
G01X48527Y72664D01*
G01X48618Y72387D01*
G01X48804Y72201D01*
G01X48989Y72110D01*
G01X49266Y72110D01*
G01X49449Y72201D01*
G01X49634Y72387D01*
G01X51666Y74051D02*
G01X51666Y72110D01*
G01X51666Y74051D02*
G01X52497Y74051D01*
G01X52776Y73957D01*
G01X52868Y73865D01*
G01X52959Y73680D01*
G01X52959Y73497D01*
G01X52868Y73311D01*
G01X52776Y73217D01*
G01X52497Y73126D01*
G01X51666Y73126D01*
G01X52314Y73126D02*
G01X52959Y72110D01*
G01X54955Y73588D02*
G01X54862Y73774D01*
G01X54679Y73957D01*
G01X54493Y74051D01*
G01X54122Y74051D01*
G01X53939Y73957D01*
G01X53754Y73774D01*
G01X53663Y73588D01*
G01X53569Y73311D01*
G01X53569Y72849D01*
G01X53663Y72572D01*
G01X53754Y72387D01*
G01X53939Y72201D01*
G01X54122Y72110D01*
G01X54493Y72110D01*
G01X54679Y72201D01*
G01X54862Y72387D01*
G01X54955Y72572D01*
G01X54955Y72849D01*
G01X54493Y72849D02*
G01X54955Y72849D01*
G01X55565Y74051D02*
G01X55565Y72110D01*
G01X55565Y74051D02*
G01X56396Y74051D01*
G01X56673Y73957D01*
G01X56764Y73865D01*
G01X56858Y73680D01*
G01X56858Y73497D01*
G01X56764Y73311D01*
G01X56673Y73217D01*
G01X56396Y73126D01*
G01X55565Y73126D02*
G01X56396Y73126D01*
G01X56673Y73035D01*
G01X56764Y72941D01*
G01X56858Y72758D01*
G01X56858Y72481D01*
G01X56764Y72295D01*
G01X56673Y72201D01*
G01X56396Y72110D01*
G01X55565Y72110D01*
G54D19*
G01X51545Y53380D02*
G01X50989Y53380D01*
G01X50887Y53413D01*
G01X50851Y53449D01*
G01X50816Y53517D01*
G01X50816Y53586D01*
G01X50851Y53657D01*
G01X50887Y53690D01*
G01X50989Y53726D01*
G01X51060Y53726D01*
G01X51545Y53152D02*
G01X50816Y53152D01*
G01X51545Y53152D02*
G01X51545Y52839D01*
G01X51509Y52735D01*
G01X51474Y52700D01*
G01X51405Y52667D01*
G01X51301Y52667D01*
G01X51232Y52700D01*
G01X51197Y52735D01*
G01X51164Y52839D01*
G01X51164Y53152D01*
G01X51545Y51953D02*
G01X50816Y52298D01*
G01X51545Y52438D02*
G01X51545Y51953D01*

%LPD*%
G36*
G01X48050Y40849D02*
G01X47550Y40849D01*
G01X47550Y40349D01*
G01X48050Y40849D01*
G37*

%LPD*%
G36*
G01X28050Y40849D02*
G01X27550Y40849D01*
G01X27550Y40349D01*
G01X28050Y40849D01*
G37*

%LPD*%
G36*
G01X28050Y21849D02*
G01X27550Y21849D01*
G01X27550Y21349D01*
G01X28050Y21849D01*
G37*

%LPD*%
G36*
G01X48050Y61849D02*
G01X47550Y61849D01*
G01X47550Y61349D01*
G01X48050Y61849D01*
G37*

%LPD*%
G36*
G01X48050Y21849D02*
G01X47550Y21849D01*
G01X47550Y21349D01*
G01X48050Y21849D01*
G37*

%LPD*%
G36*
G01X28050Y61849D02*
G01X27550Y61849D01*
G01X27550Y61349D01*
G01X28050Y61849D01*
G37*
M00*
M02*
