G04 Layer: BottomPasteMaskLayer*
G04 EasyEDA v6.3.53, 2020-07-05T02:03:50+01:00*
G04 82ae3a4b42a8425995a6aefca007ea94,831979d3ac2e4a1db92824a7b243be6d,10*
G04 Gerber Generator version 0.2*
G04 Scale: 100 percent, Rotated: No, Reflected: No *
G04 Dimensions in millimeters *
G04 leading zeros omitted , absolute positions ,3 integer and 3 decimal *
%FSLAX33Y33*%
%MOMM*%
G90*
G71D02*

%ADD13R,1.199998X0.999998*%

%LPD*%
G36*
G01X37999Y52599D02*
G01X39199Y52599D01*
G01X39199Y53599D01*
G01X37999Y53599D01*
G01X37999Y52599D01*
G37*
G36*
G01X40799Y52599D02*
G01X41999Y52599D01*
G01X41999Y53599D01*
G01X40799Y53599D01*
G01X40799Y52599D01*
G37*
G54D13*
G01X41399Y54899D03*
G36*
G01X37999Y54399D02*
G01X39199Y54399D01*
G01X39199Y55399D01*
G01X37999Y55399D01*
G01X37999Y54399D01*
G37*
G36*
G01X17999Y32599D02*
G01X19199Y32599D01*
G01X19199Y33599D01*
G01X17999Y33599D01*
G01X17999Y32599D01*
G37*
G36*
G01X20799Y32599D02*
G01X21999Y32599D01*
G01X21999Y33599D01*
G01X20799Y33599D01*
G01X20799Y32599D01*
G37*
G36*
G01X20799Y34399D02*
G01X21999Y34399D01*
G01X21999Y35399D01*
G01X20799Y35399D01*
G01X20799Y34399D01*
G37*
G36*
G01X17999Y34399D02*
G01X19199Y34399D01*
G01X19199Y35399D01*
G01X17999Y35399D01*
G01X17999Y34399D01*
G37*
G36*
G01X37999Y12599D02*
G01X39199Y12599D01*
G01X39199Y13599D01*
G01X37999Y13599D01*
G01X37999Y12599D01*
G37*
G36*
G01X40799Y12599D02*
G01X41999Y12599D01*
G01X41999Y13599D01*
G01X40799Y13599D01*
G01X40799Y12599D01*
G37*
G36*
G01X40799Y14399D02*
G01X41999Y14399D01*
G01X41999Y15399D01*
G01X40799Y15399D01*
G01X40799Y14399D01*
G37*
G36*
G01X37999Y14399D02*
G01X39199Y14399D01*
G01X39199Y15399D01*
G01X37999Y15399D01*
G01X37999Y14399D01*
G37*
G36*
G01X57999Y32599D02*
G01X59199Y32599D01*
G01X59199Y33599D01*
G01X57999Y33599D01*
G01X57999Y32599D01*
G37*
G36*
G01X60799Y32599D02*
G01X61999Y32599D01*
G01X61999Y33599D01*
G01X60799Y33599D01*
G01X60799Y32599D01*
G37*
G36*
G01X60799Y34399D02*
G01X61999Y34399D01*
G01X61999Y35399D01*
G01X60799Y35399D01*
G01X60799Y34399D01*
G37*
G36*
G01X57999Y34399D02*
G01X59199Y34399D01*
G01X59199Y35399D01*
G01X57999Y35399D01*
G01X57999Y34399D01*
G37*
M00*
M02*
